<?xml version="1.0" encoding="utf-8"?>
<!-- Generator: Adobe Illustrator 28.2.0, SVG Export Plug-In . SVG Version: 6.00 Build 0)  -->
<svg version="1.1" id="Layer_1" xmlns="http://www.w3.org/2000/svg" xmlns:xlink="http://www.w3.org/1999/xlink" x="0px" y="0px"
	 viewBox="0 0 3146.3 995.1" style="enable-background:new 0 0 3146.3 995.1;" xml:space="preserve">
<style type="text/css">
	.st0{fill:url(#SVGID_1_);}
	.st1{fill:#FFFFFF;}
</style>
<g transform="scale(7.317073170731708) translate(10, 10)">
	<g id="SvgjsG6812" transform="matrix(1,0,0,1,0,0)">
		
			<linearGradient id="SVGID_1_" gradientUnits="userSpaceOnUse" x1="169.7664" y1="75.5446" x2="170.7664" y2="75.5446" gradientTransform="matrix(804.8781 0 0 -848.7805 -136641.2344 64178.7656)">
			<stop  offset="0" style="stop-color:#7F00FF"/>
			<stop  offset="1" style="stop-color:#E100FF"/>
		</linearGradient>
		<path class="st0" d="M10,0h90c5.5,0,10,4.5,10,10v96c0,5.5-4.5,10-10,10H10c-5.5,0-10-4.5-10-10V10C0,4.5,4.5,0,10,0z"/>
	</g>
	<g id="SvgjsG6813" transform="matrix(1.9220207929611206,0,0,1.9220207929611206,16.655683624978202,-13.830307778598836)">
		<path class="st1" d="M36.1,51.4c0.6,0,1,0.2,1.5,0.6c0.4,0.4,0.6,0.9,0.6,1.5v4.3c0,0.6-0.2,1-0.6,1.5c-0.4,0.4-0.9,0.6-1.5,0.6
			H3.8c-0.6,0-1-0.2-1.5-0.6c-0.4-0.4-0.6-0.9-0.6-1.5v-4.4c0-0.5,0.2-0.9,0.5-1.3l8.6-10.4c0.4-0.5,1-0.8,1.6-0.8h5.8
			c0.4,0,0.8,0.1,1.1,0.3s0.6,0.5,0.8,0.9c0.2,0.4,0.2,0.8,0.2,1.2c-0.1,0.4-0.2,0.8-0.5,1l-5.8,7L36.1,51.4L36.1,51.4z M36.1,15
			c0.6,0,1,0.2,1.5,0.6c0.4,0.4,0.6,0.9,0.6,1.5v4.4c0,0.5-0.2,1-0.5,1.4l-8.6,10.3c-0.4,0.5-0.9,0.8-1.6,0.8h-5.7
			c-0.4,0-0.8-0.1-1.1-0.3s-0.6-0.5-0.8-0.9c-0.3-0.9-0.2-1.6,0.3-2.3l5.8-6.9H4.3c-0.6,0-1.1-0.2-1.5-0.6c-0.4-0.4-0.6-0.9-0.6-1.5
			v-4.3c0-0.6,0.2-1.1,0.6-1.5C3.2,15.2,3.7,15,4.3,15L36.1,15L36.1,15z"/>
	</g>
	<g id="SvgjsG6814" transform="matrix(1.724924087524414,0,0,1.724924087524414,127.24010977754124,7.300740463890683)">
		<path class="st1" d="M20,35.6c1.2,0,2.2,1,2.2,2.2S21.2,40,20,40H3.8c-0.9,0-1.7-0.5-2-1.4s-0.2-1.8,0.5-2.4l12.4-12.4H3.8
			c-1.2,0-2.2-1-2.2-2.2s1-2.2,2.2-2.2H20c0.9,0,1.7,0.5,2,1.4s0.2,1.8-0.5,2.4L9.1,35.6H20L20,35.6z M32.4,19.4
			c5.7,0,10.3,4.6,10.3,10.3c0,1.2-1,2.2-2.2,2.2H27c0.9,2.2,3,3.7,5.5,3.7c1.6,0,3.1-0.6,4.2-1.7c0.9-0.9,2.2-0.9,3.1,0
			c0.9,0.9,0.9,2.2,0,3.1c-1.9,1.9-4.5,3-7.3,3c-5.7,0-10.3-4.6-10.3-10.3S26.8,19.4,32.4,19.4L32.4,19.4z M26.9,27.5h11
			c-0.9-2.2-3-3.7-5.5-3.7S27.8,25.3,26.9,27.5L26.9,27.5z M62,19.6c1.1,0.5,1.5,1.9,1,2.9l-8.1,16.2c-0.4,0.7-1.1,1.2-2,1.2
			s-1.6-0.5-2-1.2l-8.1-16.2c-0.5-1.1-0.1-2.4,1-2.9c1.1-0.5,2.4-0.1,2.9,1L53,32.9l6.1-12.3C59.6,19.5,61,19.1,62,19.6L62,19.6z
			 M73.5,19.4c5.7,0,10.3,4.6,10.3,10.3c0,1.2-1,2.2-2.2,2.2H68c0.9,2.2,3,3.7,5.5,3.7c1.6,0,3.1-0.6,4.2-1.7c0.9-0.9,2.2-0.9,3.1,0
			c0.9,0.9,0.9,2.2,0,3.1c-1.9,1.9-4.5,3-7.3,3c-5.7,0-10.3-4.6-10.3-10.3S67.8,19.4,73.5,19.4L73.5,19.4z M68,27.5h11
			c-0.9-2.2-3-3.7-5.5-3.7S68.9,25.3,68,27.5L68,27.5z M96.2,35.6c1.2,0,2.2,1,2.2,2.2s-1,2.2-2.2,2.2c-5.8,0-10.5-4.7-10.5-10.5
			V14.2c0-1.2,1-2.2,2.2-2.2s2.2,1,2.2,2.2v15.3C90.1,32.9,92.8,35.6,96.2,35.6L96.2,35.6z M108.6,19.4c5.7,0,10.3,4.6,10.3,10.3
			S114.3,40,108.6,40s-10.3-4.6-10.3-10.3S103,19.4,108.6,19.4L108.6,19.4z M108.6,35.6c3.3,0,5.9-2.6,5.9-5.9s-2.6-5.9-5.9-5.9
			s-5.9,2.6-5.9,5.9S105.4,35.6,108.6,35.6z M131.2,19.4c5.7,0,10.3,4.6,10.3,10.3s-4.6,10.3-10.3,10.3c-2.2,0-4.2-0.7-5.9-1.9v7.1
			c0,1.2-1,2.2-2.2,2.2s-2.2-1-2.2-2.2V21.6c0-1.2,1-2.2,2.2-2.2c1.1,0,2,0.8,2.2,1.9C126.9,20.1,129,19.4,131.2,19.4L131.2,19.4z
			 M131.2,35.6c3.2,0,5.9-2.6,5.9-5.9s-2.6-5.9-5.9-5.9s-5.9,2.6-5.9,5.9S127.9,35.6,131.2,35.6z M161.7,19.4c1.2,0,2.2,1,2.2,2.2
			v16.2c0,1.2-1,2.2-2.2,2.2c-1.1,0-2-0.8-2.2-1.9c-1.7,1.2-3.7,1.9-5.9,1.9c-5.7,0-10.3-4.6-10.3-10.3s4.6-10.3,10.3-10.3
			c2.2,0,4.2,0.7,5.9,1.9C159.7,20.2,160.6,19.4,161.7,19.4L161.7,19.4z M153.6,35.6c3.3,0,5.9-2.6,5.9-5.9s-2.6-5.9-5.9-5.9
			s-5.9,2.6-5.9,5.9S150.4,35.6,153.6,35.6z"/>
	</g>
</g>
</svg>
