
        <svg xmlns="http://www.w3.org/2000/svg" xmlns:xlink="http://www.w3.org/1999/xlink" version="1.1" width="3146.3414634146343" 
        height="995.1219512195123" viewBox="0 0 3146.3414634146343 995.1219512195123">
			<rect fill="#ffffff" width="3146.3414634146343" height="995.1219512195123"/>
			<g transform="scale(7.317073170731708) translate(10, 10)">
				<defs id="SvgjsDefs6811"><linearGradient id="SvgjsLinearGradient6818"><stop id="SvgjsStop6819" stop-color="#7f00ff" offset="0"></stop><stop id="SvgjsStop6820" stop-color="#e100ff" offset="1"></stop></linearGradient></defs><g id="SvgjsG6812" featureKey="symbolContainer" transform="matrix(1,0,0,1,0,0)" fill="url(#SvgjsLinearGradient6818)"><rect width="110" height="116" rx="10"></rect></g><g id="SvgjsG6813" featureKey="monogramFeature-0" transform="matrix(1.9220207929611206,0,0,1.9220207929611206,16.655683624978202,-13.830307778598836)" fill="#ffffff"><path d="M36.06 51.36 q0.84 0 1.47 0.63 t0.63 1.47 l0 4.32 q0 0.84 -0.63 1.47 t-1.47 0.63 l-32.22 0 q-0.84 0 -1.47 -0.63 t-0.63 -1.47 l0 -4.38 q0 -0.72 0.48 -1.32 l8.58 -10.38 q0.66 -0.78 1.62 -0.78 l5.76 0 q0.6 0 1.14 0.33 t0.81 0.9 t0.18 1.2 t-0.51 1.05 l-5.76 6.96 l22.02 0 z M36.06 15 q0.84 0 1.47 0.63 t0.63 1.53 l0 4.38 q0 0.78 -0.48 1.38 l-8.58 10.26 q-0.6 0.78 -1.62 0.78 l-5.7 0 q-0.6 0 -1.14 -0.33 t-0.84 -0.87 q-0.48 -1.32 0.3 -2.28 l5.76 -6.9 l-21.6 0 q-0.9 0 -1.53 -0.63 t-0.63 -1.53 l0 -4.26 q0 -0.9 0.63 -1.53 t1.53 -0.63 l31.8 0 z"></path></g><g id="SvgjsG6814" featureKey="nameFeature-0" transform="matrix(1.724924087524414,0,0,1.724924087524414,127.24010977754124,7.300740463890683)" fill="#000000"><path d="M19.992 35.608 c1.2128 0 2.196 0.98328 2.196 2.196 s-0.98328 2.196 -2.196 2.196 l-16.196 0 c-0.88804 0 -1.6885 -0.53528 -2.0286 -1.3558 s-0.15234 -1.7651 0.47576 -2.3932 l12.447 -12.447 l-10.894 0 c-1.2128 0 -2.196 -0.98328 -2.196 -2.196 s0.98328 -2.196 2.196 -2.196 l16.196 0 c0.88804 0 1.6885 0.53528 2.0286 1.3558 s0.15234 1.7651 -0.47576 2.3932 l-12.447 12.447 l10.894 0 z M32.428 19.412 c5.6764 0 10.294 4.6176 10.294 10.294 c0 1.2128 -0.98328 2.196 -2.196 2.196 l-13.576 0 c0.87292 2.17 2.9995 3.7059 5.4784 3.7059 c1.5765 0 3.0586 -0.6138 4.1732 -1.7286 c0.85784 -0.85756 2.248 -0.85732 3.1058 0 c0.85784 0.85784 0.85756 2.2482 0 3.1058 c-1.9446 1.9443 -4.5296 3.0149 -7.2792 3.0149 c-5.6764 0 -10.294 -4.6176 -10.294 -10.294 s4.6176 -10.294 10.294 -10.294 z M26.9496 27.509999999999998 l10.957 0 c-0.87292 -2.17 -2.9995 -3.7059 -5.4784 -3.7059 s-4.6056 1.5359 -5.4784 3.7059 z M62.043 19.644 c1.0846 0.54216 1.5243 1.8614 0.98192 2.946 l-8.098 16.196 c-0.37195 0.74392 -1.1324 1.2139 -1.9641 1.2139 s-1.5922 -0.46996 -1.9641 -1.2139 l-8.098 -16.196 c-0.5424 -1.0848 -0.10266 -2.4039 0.98192 -2.9463 c1.0848 -0.5424 2.4039 -0.10293 2.9463 0.9822 l6.134 12.268 l6.134 -12.267 c0.54216 -1.0851 1.8612 -1.5241 2.9463 -0.9822 z M73.496 19.412 c5.6764 0 10.294 4.6176 10.294 10.294 c0 1.2128 -0.98328 2.196 -2.196 2.196 l-13.576 0 c0.87292 2.17 2.9995 3.7059 5.4784 3.7059 c1.5765 0 3.0586 -0.6138 4.1732 -1.7286 c0.85784 -0.85756 2.248 -0.85732 3.1058 0 c0.85784 0.85784 0.85756 2.2482 0 3.1058 c-1.9446 1.9443 -4.5296 3.0149 -7.2792 3.0149 c-5.6764 0 -10.294 -4.6176 -10.294 -10.294 s4.6176 -10.294 10.294 -10.294 z M68.0176 27.509999999999998 l10.957 0 c-0.87292 -2.17 -2.9995 -3.7059 -5.4784 -3.7059 s-4.6056 1.5359 -5.4784 3.7059 z M96.195 35.608 c1.2128 0 2.1961 0.98332 2.1961 2.1961 s-0.98328 2.196 -2.196 2.196 c-5.7668 0 -10.459 -4.692 -10.459 -10.459 l0 -15.345 c0 -1.2128 0.98328 -2.196 2.196 -2.196 s2.196 0.98328 2.196 2.196 l0 15.345 c0 3.3452 2.7215 6.0668 6.0668 6.0668 z M108.644 19.412 c5.6764 0 10.294 4.6176 10.294 10.294 s-4.6176 10.294 -10.294 10.294 s-10.294 -4.6176 -10.294 -10.294 s4.6176 -10.294 10.294 -10.294 z M108.644 35.608 c3.2543 0 5.902 -2.6476 5.902 -5.902 s-2.6476 -5.902 -5.902 -5.902 s-5.902 2.6476 -5.902 5.902 s2.6476 5.902 5.902 5.902 z M131.15099999999998 19.412 c5.6612 0 10.266 4.6056 10.266 10.267 s-4.6056 10.267 -10.267 10.267 c-2.1837 0 -4.2088 -0.68764 -5.8744 -1.8543 l0 7.1249 c0 1.2128 -0.98328 2.196 -2.196 2.196 s-2.196 -0.98328 -2.196 -2.196 l0 -23.608 c0 -1.2128 0.98328 -2.196 2.196 -2.196 c1.1027 0 2.013 0.81364 2.1697 1.873 c1.6709 -1.1782 3.7059 -1.873 5.9012 -1.873 z M131.15099999999998 35.5528 c3.2392 0 5.8744 -2.6353 5.8744 -5.8744 s-2.6353 -5.8744 -5.8744 -5.8744 s-5.8744 2.6353 -5.8744 5.8744 s2.6353 5.8744 5.8744 5.8744 z M161.73 19.412 c1.2128 0 2.196 0.98328 2.196 2.196 l0 16.196 c0 1.2128 -0.98328 2.196 -2.196 2.196 c-1.1071 0 -2.0201 -0.81968 -2.1716 -1.885 c-1.677 1.1856 -3.721 1.885 -5.9264 1.885 c-5.6764 0 -10.294 -4.6176 -10.294 -10.294 s4.6176 -10.294 10.294 -10.294 c2.2054 0 4.2492 0.69944 5.9264 1.885 c0.15152 -1.0654 1.0645 -1.885 2.1716 -1.885 z M153.632 35.608 c3.2543 0 5.902 -2.6476 5.902 -5.902 s-2.6476 -5.902 -5.902 -5.902 s-5.902 2.6476 -5.902 5.902 s2.6476 5.902 5.902 5.902 z"></path></g>
			</g>
		</svg>
	