<?xml version="1.0" encoding="UTF-8"?>
<svg id="Layer_1" data-name="Layer 1" xmlns="http://www.w3.org/2000/svg" xmlns:xlink="http://www.w3.org/1999/xlink" viewBox="0 0 804.88 848.78">
  <defs>
    <style>
      .cls-1 {
        fill: url(#linear-gradient);
      }

      .cls-1, .cls-2 {
        stroke-width: 0px;
      }

      .cls-2 {
        fill: #fff;
      }
    </style>
    <linearGradient id="linear-gradient" x1="146" y1="552.77" x2="147" y2="552.77" gradientTransform="translate(-117508.67 469600.72) scale(804.88 -848.78)" gradientUnits="userSpaceOnUse">
      <stop offset="0" stop-color="#7f00ff"/>
      <stop offset="1" stop-color="#e100ff"/>
    </linearGradient>
  </defs>
  <g id="SvgjsG6812">
    <rect class="cls-1" y="0" width="804.88" height="848.78" rx="73.17" ry="73.17"/>
  </g>
  <g id="SvgjsG6813">
    <path class="cls-2" d="M629,621.11c7.88,0,14.77,2.95,20.67,8.86,5.91,5.91,8.86,12.8,8.86,20.67v60.75c0,7.88-2.95,14.77-8.86,20.67-5.91,5.91-12.8,8.86-20.67,8.86H175.87c-7.88,0-14.77-2.95-20.67-8.86-5.91-5.91-8.86-12.8-8.86-20.67v-61.6c0-6.75,2.25-12.94,6.75-18.56l120.67-145.98c6.19-7.31,13.78-10.97,22.78-10.97h81.01c5.63,0,10.97,1.55,16.03,4.64,5.06,3.09,8.86,7.31,11.39,12.66,2.53,5.34,3.38,10.97,2.53,16.88-.84,5.91-3.23,10.83-7.17,14.77l-81.01,97.88h309.68ZM629,109.76c7.88,0,14.77,2.95,20.67,8.86,5.91,5.91,8.86,13.08,8.86,21.52v61.6c0,7.31-2.25,13.78-6.75,19.41l-120.67,144.29c-5.63,7.31-13.22,10.97-22.78,10.97h-80.16c-5.63,0-10.97-1.55-16.03-4.64s-9-7.17-11.81-12.24c-4.5-12.38-3.09-23.06,4.22-32.06l81.01-97.04H181.78c-8.44,0-15.61-2.95-21.52-8.86-5.91-5.91-8.86-13.08-8.86-21.52v-59.91c0-8.44,2.95-15.61,8.86-21.52,5.91-5.91,13.08-8.86,21.52-8.86h447.22Z"/>
  </g>
</svg>